<svg width="21" height="20" viewBox="0 0 21 20" fill="none" xmlns="http://www.w3.org/2000/svg">
<path d="M18.625 5.625V14.375C18.625 15.4105 17.7855 16.25 16.75 16.25H4.25C3.21447 16.25 2.375 15.4105 2.375 14.375V5.625M18.625 5.625C18.625 4.58947 17.7855 3.75 16.75 3.75H4.25C3.21447 3.75 2.375 4.58947 2.375 5.625M18.625 5.625V5.82726C18.625 6.47837 18.2872 7.08287 17.7327 7.42412L11.4827 11.2703C10.88 11.6411 10.12 11.6411 9.51732 11.2703L3.26732 7.42412C2.71279 7.08287 2.375 6.47837 2.375 5.82726V5.625" stroke="#757C91" stroke-width="1.5" stroke-linecap="round" stroke-linejoin="round"/>
</svg>
