<svg width="16" height="14" viewBox="0 0 16 14" fill="none" xmlns="http://www.w3.org/2000/svg">
<path d="M4.55126 3.1166C4.31054 3.50236 3.90752 3.75598 3.45734 3.81996C3.20437 3.85591 2.95235 3.89482 2.70133 3.93665C1.99941 4.05361 1.5 4.67108 1.5 5.38268V11C1.5 11.8284 2.17157 12.5 3 12.5H13C13.8284 12.5 14.5 11.8284 14.5 11V5.38268C14.5 4.67109 14.0006 4.05362 13.2987 3.93665C13.0476 3.89482 12.7956 3.85591 12.5427 3.81996C12.0925 3.75599 11.6895 3.50236 11.4487 3.1166L10.9013 2.23926C10.6489 1.83491 10.2196 1.57226 9.74367 1.5467C9.16638 1.5157 8.58502 1.5 8 1.5C7.41498 1.5 6.83362 1.5157 6.25633 1.5467C5.7804 1.57226 5.35105 1.83491 5.09873 2.23926L4.55126 3.1166Z" stroke="#FCFCFC" stroke-width="1.5" stroke-linecap="round" stroke-linejoin="round"/>
<path d="M11 7.5C11 9.15685 9.65685 10.5 8 10.5C6.34315 10.5 5 9.15685 5 7.5C5 5.84315 6.34315 4.5 8 4.5C9.65685 4.5 11 5.84315 11 7.5Z" stroke="#FCFCFC" stroke-width="1.5" stroke-linecap="round" stroke-linejoin="round"/>
<path d="M12.5 6H12.505V6.005H12.5V6Z" stroke="#FCFCFC" stroke-width="1.5" stroke-linecap="round" stroke-linejoin="round"/>
</svg>
