<svg width="16" height="17" viewBox="0 0 16 17" fill="none" xmlns="http://www.w3.org/2000/svg">
<path fill-rule="evenodd" clip-rule="evenodd" d="M7.99961 15.1059C11.5342 15.1059 14.3996 12.2405 14.3996 8.70591C14.3996 5.17129 11.5342 2.30591 7.99961 2.30591C4.46499 2.30591 1.59961 5.17129 1.59961 8.70591C1.59961 12.2405 4.46499 15.1059 7.99961 15.1059ZM11.0849 7.25881C11.2798 6.99082 11.2205 6.61557 10.9525 6.42067C10.6845 6.22576 10.3093 6.28501 10.1144 6.553L7.32736 10.3851L5.82387 8.88164C5.58956 8.64733 5.20966 8.64733 4.97535 8.88164C4.74103 9.11596 4.74103 9.49586 4.97535 9.73017L6.97535 11.7302C7.09942 11.8543 7.2716 11.9178 7.44654 11.9041C7.62148 11.8903 7.78164 11.8007 7.88485 11.6588L11.0849 7.25881Z" fill="#3B4152"/>
</svg>
