<svg width="18" height="18" viewBox="0 0 18 18" fill="none" xmlns="http://www.w3.org/2000/svg">
<path d="M9 5.87505V4.62505M9 5.87505C7.8707 5.87505 6.75234 5.92185 5.64674 6.01361C4.70416 6.09184 4 6.89441 4 7.84023V9.93452M9 5.87505C10.1293 5.87505 11.2477 5.92185 12.3533 6.01361C13.2958 6.09184 14 6.89441 14 7.84023V9.93452M11.5 5.87505V4.62505M6.5 5.87505V4.62505M16.5 12.75L15.25 13.375C14.4631 13.7685 13.5369 13.7685 12.75 13.375C11.9631 12.9816 11.0369 12.9816 10.25 13.375C9.46311 13.7685 8.53689 13.7685 7.75 13.375C6.96311 12.9816 6.03689 12.9816 5.25 13.375C4.46311 13.7685 3.53689 13.7685 2.75 13.3751L1.5 12.75M14 9.93452C12.362 9.73027 10.6933 9.62505 9 9.62505C7.3067 9.62505 5.63797 9.73027 4 9.93452M14 9.93452C14.3243 9.97496 14.6474 10.0193 14.9692 10.0674C15.8601 10.2007 16.5 10.979 16.5 11.8798V16.1875C16.5 16.7053 16.0803 17.125 15.5625 17.125H2.4375C1.91973 17.125 1.5 16.7053 1.5 16.1876V11.8798C1.5 10.979 2.13994 10.2007 3.03081 10.0674C3.35263 10.0193 3.67571 9.97496 4 9.93452M9.22102 1.59158C9.34306 1.71362 9.34306 1.91148 9.22102 2.03352C9.09898 2.15556 8.90112 2.15556 8.77908 2.03352C8.65704 1.91148 8.65704 1.71362 8.77908 1.59158C8.84203 1.52862 9.00004 1.37061 9.00004 1.37061C9.00004 1.37061 9.16194 1.5325 9.22102 1.59158ZM6.72102 1.59158C6.84306 1.71362 6.84306 1.91148 6.72102 2.03352C6.59898 2.15556 6.40112 2.15556 6.27908 2.03352C6.15704 1.91148 6.15704 1.71362 6.27908 1.59158C6.34203 1.52862 6.50004 1.37061 6.50004 1.37061C6.50004 1.37061 6.66194 1.5325 6.72102 1.59158ZM11.721 1.59158C11.8431 1.71362 11.8431 1.91148 11.721 2.03352C11.599 2.15556 11.4011 2.15556 11.2791 2.03352C11.157 1.91148 11.157 1.71362 11.2791 1.59158C11.342 1.52862 11.5 1.37061 11.5 1.37061C11.5 1.37061 11.6619 1.5325 11.721 1.59158Z" stroke="#757C91" stroke-width="1.5" stroke-linecap="round" stroke-linejoin="round"/>
</svg>
