<svg width="16" height="17" viewBox="0 0 16 17" fill="none" xmlns="http://www.w3.org/2000/svg">
<path d="M2.65376 5.98171C2.03835 6.70922 1.56875 7.564 1.29004 8.50099C2.1509 11.392 4.82921 13.5 7.99987 13.5C8.66158 13.5 9.30185 13.4082 9.90864 13.2366M4.15222 4.65175C5.25639 3.92372 6.57894 3.5 8.00045 3.5C11.1711 3.5 13.8494 5.60803 14.7103 8.49901C14.2357 10.0946 13.2075 11.4518 11.8485 12.348M4.15222 4.65175L2.00047 2.5M4.15222 4.65175L6.58625 7.08579M11.8485 12.348L14.0005 14.5M11.8485 12.348L9.41468 9.91421M9.41468 9.91421C9.77661 9.55228 10.0005 9.05228 10.0005 8.5C10.0005 7.39543 9.10504 6.5 8.00047 6.5C7.44818 6.5 6.94818 6.72386 6.58625 7.08579M9.41468 9.91421L6.58625 7.08579" stroke="#757C91" stroke-width="1.5" stroke-linecap="round" stroke-linejoin="round"/>
</svg>
