<svg width="16" height="17" viewBox="0 0 16 17" fill="none" xmlns="http://www.w3.org/2000/svg">
<path fill-rule="evenodd" clip-rule="evenodd" d="M4.48032 4.27321L12.2268 12.0197C14.0304 9.85886 13.9178 6.63962 11.8891 4.61091C9.86038 2.58221 6.64114 2.46964 4.48032 4.27321ZM11.5197 12.7268L3.77321 4.98032C1.96964 7.14114 2.08221 10.3604 4.11091 12.3891C6.13962 14.4178 9.35886 14.5304 11.5197 12.7268ZM3.40381 3.90381C5.94221 1.3654 10.0578 1.3654 12.5962 3.90381C15.1346 6.44221 15.1346 10.5578 12.5962 13.0962C10.0578 15.6346 5.94221 15.6346 3.40381 13.0962C0.865398 10.5578 0.865398 6.44221 3.40381 3.90381Z" fill="#C0C5D6"/>
</svg>
