<svg width="16" height="17" viewBox="0 0 16 17" fill="none" xmlns="http://www.w3.org/2000/svg">
<path d="M2.80624 8.73813L1.64592 8.1206C1.17293 7.86887 0.982398 7.28908 1.21386 6.80585L2.19922 4.74866C2.44283 4.24007 3.05856 4.03339 3.55969 4.292L4.65071 4.85503M2.80624 8.73813L5.97744 11.1004L9.45234 11.885C9.78703 11.9606 10.1371 11.8593 10.3797 11.6167L12.2066 9.78981M2.80624 8.73813L4.65071 4.85503M13.2583 8.73813L14.3364 8.14516C14.8153 7.88177 14.994 7.28269 14.7377 6.79998L13.7059 4.85674C13.4554 4.38493 12.8783 4.19333 12.3953 4.42164L11.4785 4.85503M13.2583 8.73813L12.2066 9.78981M13.2583 8.73813L11.4785 4.85503M11.4785 4.85503L8.08078 4.01369L4.65071 4.85503M11.4785 4.85503L9.77964 4.43436L6.71324 7.35722C6.30883 7.7427 6.28343 8.4153 6.7667 8.69564C7.62302 9.19238 8.37548 8.95286 9.40116 8.39314C9.76013 8.19725 10.2013 8.22365 10.5236 8.47537L12.2066 9.78981M3.58286 11.7152L5.42733 13.0419L7.88663 13.592" stroke="#757C91" stroke-linecap="round"/>
</svg>
