<svg width="16" height="14" viewBox="0 0 16 14" fill="none" xmlns="http://www.w3.org/2000/svg">
<path d="M5 4.5H11M5 6.5H8M1.5 7.50623C1.5 8.57362 2.24894 9.5027 3.30497 9.65797C4.05731 9.76859 4.81816 9.85303 5.58657 9.91034C5.82003 9.92775 6.03345 10.0502 6.16331 10.245L8 13L9.83667 10.245C9.96653 10.0502 10.18 9.92778 10.4134 9.91038C11.1818 9.85309 11.9427 9.76866 12.695 9.65805C13.751 9.50279 14.5 8.5737 14.5 7.5063V3.4937C14.5 2.42631 13.751 1.49722 12.695 1.34196C11.1627 1.11668 9.59507 1 8.00019 1C6.40517 1 4.83741 1.1167 3.30498 1.34202C2.24894 1.49729 1.5 2.42637 1.5 3.49376V7.50623Z" stroke="#017441" stroke-width="1.5" stroke-linecap="round" stroke-linejoin="round"/>
</svg>
