<svg width="16" height="17" viewBox="0 0 16 17" fill="none" xmlns="http://www.w3.org/2000/svg">
<path d="M14.5 5V12C14.5 12.8284 13.8284 13.5 13 13.5H3C2.17157 13.5 1.5 12.8284 1.5 12V5M14.5 5C14.5 4.17157 13.8284 3.5 13 3.5H3C2.17157 3.5 1.5 4.17157 1.5 5M14.5 5V5.16181C14.5 5.6827 14.2298 6.1663 13.7861 6.43929L8.78615 9.51622C8.30404 9.8129 7.69596 9.8129 7.21385 9.51622L2.21385 6.43929C1.77023 6.1663 1.5 5.6827 1.5 5.16181V5" stroke="#C0C5D6" stroke-width="1.5" stroke-linecap="round" stroke-linejoin="round"/>
</svg>
