<svg width="20" height="20" viewBox="0 0 20 20" fill="none" xmlns="http://www.w3.org/2000/svg">
<path d="M9.56721 2.91569C9.72733 2.53071 10.2727 2.53071 10.4328 2.91569L12.2045 7.17524C12.272 7.33753 12.4246 7.44843 12.5998 7.46247L17.1984 7.83114C17.614 7.86446 17.7825 8.38313 17.4658 8.65438L13.9622 11.6556C13.8287 11.7699 13.7704 11.9494 13.8112 12.1203L14.8816 16.6077C14.9784 17.0133 14.5372 17.3339 14.1813 17.1165L10.2444 14.7118C10.0943 14.6202 9.90568 14.6202 9.75568 14.7118L5.81868 17.1165C5.46286 17.3339 5.02164 17.0133 5.11839 16.6077L6.1888 12.1203C6.22958 11.9494 6.17128 11.7699 6.03779 11.6556L2.53419 8.65438C2.21753 8.38313 2.38606 7.86446 2.80167 7.83114L7.40021 7.46247C7.57543 7.44843 7.72806 7.33753 7.79556 7.17524L9.56721 2.91569Z" stroke="#C0C5D6" stroke-width="1.5" stroke-linecap="round" stroke-linejoin="round"/>
</svg>
