<svg width="20" height="20" viewBox="0 0 20 20" fill="none" xmlns="http://www.w3.org/2000/svg">
<path d="M8.61886 3.28338C8.6942 2.83132 9.08532 2.5 9.5436 2.5H10.4552C10.9135 2.5 11.3046 2.83132 11.38 3.28338L11.5041 4.02822C11.5631 4.38178 11.8238 4.66532 12.1549 4.80276C12.486 4.94027 12.8663 4.9219 13.1581 4.71348L13.7728 4.27445C14.1457 4.00807 14.6565 4.05035 14.9806 4.37441L15.6252 5.01903C15.9493 5.34309 15.9916 5.85393 15.7252 6.22686L15.286 6.84172C15.0776 7.13343 15.0593 7.51361 15.1967 7.84469C15.3341 8.17565 15.6176 8.43636 15.9711 8.49527L16.716 8.61944C17.1681 8.69478 17.4994 9.0859 17.4994 9.54418V10.4558C17.4994 10.9141 17.1681 11.3052 16.716 11.3806L15.9712 11.5047C15.6176 11.5636 15.3341 11.8244 15.1967 12.1554C15.0592 12.4866 15.0775 12.8669 15.2859 13.1587L15.7249 13.7732C15.9913 14.1461 15.949 14.657 15.6249 14.981L14.9803 15.6256C14.6563 15.9497 14.1454 15.992 13.7725 15.7256L13.1578 15.2866C12.8661 15.0782 12.4859 15.0598 12.1548 15.1973C11.8238 15.3347 11.5631 15.6182 11.5041 15.9717L11.38 16.7166C11.3046 17.1687 10.9135 17.5 10.4552 17.5H9.5436C9.08532 17.5 8.6942 17.1687 8.61886 16.7166L8.49472 15.9718C8.43579 15.6182 8.17502 15.3347 7.84399 15.1972C7.51282 15.0597 7.13254 15.0781 6.84075 15.2865L6.22607 15.7256C5.85315 15.992 5.3423 15.9497 5.01825 15.6256L4.37362 14.981C4.04956 14.6569 4.00729 14.1461 4.27366 13.7732L4.71285 13.1583C4.92122 12.8666 4.93959 12.4864 4.80213 12.1553C4.66473 11.8244 4.38125 11.5636 4.02777 11.5047L3.2828 11.3806C2.83074 11.3052 2.49942 10.9141 2.49942 10.4558V9.54418C2.49942 9.0859 2.83074 8.69478 3.2828 8.61944L4.02763 8.4953C4.3812 8.43637 4.66474 8.1756 4.80219 7.84456C4.93969 7.51337 4.92133 7.13308 4.7129 6.84128L4.27399 6.2268C4.00761 5.85388 4.04989 5.34304 4.37395 5.01898L5.01857 4.37435C5.34263 4.0503 5.85347 4.00802 6.2264 4.27439L6.84106 4.71344C7.13279 4.92181 7.51299 4.94018 7.84409 4.80272C8.17506 4.66531 8.43578 4.38182 8.4947 4.02833L8.61886 3.28338Z" stroke="#C0C5D6" stroke-width="1.5" stroke-linecap="round" stroke-linejoin="round"/>
<path d="M12.5 10C12.5 11.3807 11.3807 12.5 10 12.5C8.61929 12.5 7.5 11.3807 7.5 10C7.5 8.61931 8.61929 7.50002 10 7.50002C11.3807 7.50002 12.5 8.61931 12.5 10Z" stroke="#C0C5D6" stroke-width="1.5" stroke-linecap="round" stroke-linejoin="round"/>
</svg>
