<svg width="14" height="14" viewBox="0 0 14 14" fill="none" xmlns="http://www.w3.org/2000/svg">
<path d="M7.00004 1C8.8365 1 10.6368 1.1547 12.3887 1.45178C12.7439 1.51202 13 1.82237 13 2.18268V2.87868C13 3.2765 12.842 3.65803 12.5607 3.93934L8.93934 7.56066C8.65804 7.84196 8.5 8.2235 8.5 8.62132V10.5729C8.5 11.1411 8.179 11.6605 7.67082 11.9146L5.5 13V8.62132C5.5 8.2235 5.34196 7.84196 5.06066 7.56066L1.43934 3.93934C1.15804 3.65804 1 3.2765 1 2.87868V2.1827C1 1.82238 1.25605 1.51203 1.61129 1.45179C3.3632 1.1547 5.16355 1 7.00004 1Z" stroke="#AAAEBB" stroke-width="1.5" stroke-linecap="round" stroke-linejoin="round"/>
</svg>
