<svg width="12" height="12" viewBox="0 0 12 12" fill="none" xmlns="http://www.w3.org/2000/svg">
<path d="M1.5 1.5V2.25M1.5 10.5V7.5M1.5 7.5L2.88505 7.15374C3.92717 6.89321 5.02812 7.01406 5.98892 7.49446L6.04278 7.52139C6.98435 7.99218 8.06119 8.11796 9.08592 7.87684L10.643 7.51046C10.5485 6.64497 10.5 5.76565 10.5 4.875C10.5 3.99171 10.5477 3.11957 10.6407 2.26101L9.08592 2.62684C8.06119 2.86796 6.98435 2.74218 6.04278 2.27139L5.98892 2.24446C5.02812 1.76406 3.92717 1.64321 2.88505 1.90374L1.5 2.25M1.5 7.5V2.25" stroke="#F0443A" stroke-linecap="round" stroke-linejoin="round"/>
</svg>
